<?xml version="1.0" encoding="UTF-8"?>
<!DOCTYPE svg PUBLIC "-//W3C//DTD SVG 1.1//EN" "http://www.w3.org/Graphics/SVG/1.1/DTD/svg11.dtd">
<svg version="1.1" xmlns="http://www.w3.org/2000/svg" xmlns:xlink="http://www.w3.org/1999/xlink" x="0" y="0" width="710.18" height="865.206" viewBox="0, 0, 710.18, 865.206">
  <g id="layer4">
    <path d="M606.863,0.002 C605.626,0.017 604.167,0.092 602.426,0.205 C560.785,2.897 511.496,24.408 458.358,63.083 L450.593,68.736 L441.145,65.403 C380.08,43.867 308.248,45.844 245.3,70.793 C240.824,72.567 237.887,73.354 237.308,72.937 C230.625,68.128 205.794,51.983 198,47.378 C153.873,21.311 114.584,7.525 77.744,5.184 C65.133,4.382 62.645,4.712 60.595,7.459 C58.417,10.375 58.048,15.473 58.592,35.153 C59.637,72.942 64.346,113.36 71.982,150.071 C74.27,161.07 80.837,188.04 82.746,194.282 L83.818,197.786 L79.222,203.392 C76.694,206.475 73.444,209.943 72,211.098 C59.507,221.098 43.961,236.594 31.811,251.159 C24.988,259.337 24.483,260.362 24.565,265.831 L24.634,270.382 L14.754,273.224 C2.564,276.729 -0,277.767 -0,279.197 C-0,281.057 3.121,282.654 6.729,282.64 C8.597,282.632 13.806,281.451 18.305,280.015 C22.804,278.578 26.979,277.403 27.582,277.403 C28.184,277.403 29.825,278.411 31.228,279.643 C32.63,280.874 34.614,282.091 35.638,282.348 C37.86,282.906 37.843,282.622 36.02,288.435 C33.339,296.989 32.015,309.002 32.483,320.528 C32.941,331.82 33.922,335.896 37.226,340.227 C40.982,345.151 46.663,347.095 49.581,344.455 C50.817,343.335 50.928,343.421 51.267,345.767 C54.429,367.695 59.032,381.171 67.75,394.019 C78.38,409.684 85.876,410.006 89.647,394.958 C90.557,391.325 91.245,392.048 92.924,398.405 C93.826,401.819 96.067,408.299 97.903,412.804 L101.241,420.996 L96.655,425.625 C94.094,428.208 92.293,430.616 92.578,431.077 C93.229,432.13 98.262,432.146 101.014,431.103 C102.175,430.663 103.834,429.639 104.7,428.828 C105.995,427.615 106.634,427.491 108.311,428.128 C114.133,430.342 116.758,428.338 119.575,419.528 C121.844,412.433 121.185,413.406 128.421,406.479 L134.216,400.932 L137.421,403.869 C152.805,417.972 179.605,434.21 204.187,444.322 C209.034,446.315 213,448.361 213,448.866 C213,451.182 208.024,463.682 204.675,469.778 C196.852,484.021 186.805,494.866 167.058,510.38 C136.622,534.293 127.521,544.038 118.818,562.028 C112.157,575.797 109.054,589.246 108.262,607.778 C107.719,620.492 108.655,633.201 112.219,661.483 C114.789,681.884 114.861,683.067 113.692,685.529 C113.017,686.953 107.87,692.654 102.255,698.198 C90.61,709.695 87.485,713.563 83.657,721.217 C76.392,735.746 76.127,751.542 82.917,765.306 C85.414,770.367 89.72,775.716 93.792,778.817 C94.847,779.62 96.632,781.974 97.758,784.047 C103.448,794.521 112.997,800.266 124.38,800.063 C127.127,800.015 130.366,799.761 131.578,799.501 C133.555,799.076 134.332,799.569 139.118,804.294 C153.093,818.09 169.793,820.954 187.786,812.641 L193.198,810.14 L196.377,812.96 C200.202,816.354 205.106,818.153 210.538,818.153 C214.251,818.153 214.8,818.393 217.717,821.282 C222.232,825.754 227.751,829.073 234.504,831.377 C239.452,833.066 241.671,833.385 248.625,833.396 C253.162,833.403 257.563,833.182 258.404,832.905 C259.544,832.53 260.764,833.154 263.194,835.353 C267.383,839.144 273.591,842.426 279.75,844.107 C286.876,846.052 302.497,845.9 312.193,843.792 C334.943,838.845 355.734,827.962 368.637,814.246 L374.159,808.375 L376.368,811.577 C379.884,816.671 388.618,826.124 395.388,832.163 C414.923,849.588 440.219,861.056 466.125,864.231 L466.125,864.231 C505.526,869.06 544.75,855.768 571.72,828.449 C575.914,824.2 584.21,814.182 585.621,811.661 C586.257,810.526 586.439,810.527 588.07,811.67 C589.559,812.712 592.082,812.905 604.292,812.905 C612.368,812.905 618.75,813.203 618.75,813.58 C618.75,813.951 617.91,816.061 616.882,818.267 C614.737,822.875 614.383,830.115 616.071,834.844 C619.268,843.802 629.055,850.088 644.366,853.016 C659.774,855.963 697.719,856.054 703.274,853.157 C712.281,848.461 712.52,835.204 703.745,827.115 C698.095,821.908 696.834,821.634 681,822.192 C673.369,822.46 664.336,822.894 660.929,823.154 L654.734,823.627 L656.004,820.703 C656.806,818.857 657.289,815.706 657.315,812.15 C657.349,807.458 657.007,805.808 655.261,802.239 C649.917,791.317 635.542,784.66 611.191,781.829 C605.735,781.195 601.147,780.551 600.996,780.4 C600.845,780.248 601.388,777.329 602.205,773.91 C611.443,735.232 599.607,690.909 571.775,659.953 L568.368,656.162 L570.286,648.095 C579.318,610.109 576.071,577.658 559.852,543.817 C553.783,531.155 547.148,519.958 532.736,498.057 C519.329,477.681 513.604,468.333 509.449,460.028 C504.537,450.208 503.763,451.574 517.301,446.188 C556.533,430.579 591.632,408.306 623.582,378.747 C628.097,374.57 632.039,371.153 632.344,371.153 C632.648,371.153 638.033,374.558 644.311,378.719 C650.775,383.003 656.811,386.46 658.225,386.689 C661.618,387.24 664.215,385.402 665.338,381.656 C665.833,380.004 666.362,378.653 666.513,378.653 C666.664,378.653 668.888,379.975 671.456,381.591 C676.383,384.692 680.502,385.879 683.621,385.097 C684.655,384.837 685.5,384.118 685.5,383.499 C685.5,382.34 679.121,377.955 670.455,373.157 L665.536,370.434 L663.434,360.105 C662.278,354.425 661.147,348.934 660.92,347.903 C660.52,346.087 660.612,346.113 663.816,348.723 C669.397,353.27 672.428,354.181 675.863,352.343 C677.732,351.343 679.5,347.276 679.497,343.989 C679.495,341.507 675.298,324.748 673.2,318.84 C672.577,317.087 672.305,315.662 672.596,315.67 C672.887,315.68 675.56,316.336 678.536,317.128 C684.607,318.743 688.506,318.469 690.48,316.287 C691.632,315.015 691.65,314.731 690.649,313.73 C689.665,312.745 678.241,309.209 671.55,307.817 C669.43,307.376 668.982,306.719 666.456,300.336 C664.932,296.488 661.519,289.072 658.871,283.855 L654.056,274.372 L658.824,274.574 C664.463,274.814 666.295,273.629 667.564,268.914 C669.01,263.544 666.643,256.415 661.315,250.097 L658.211,246.417 L669.419,246.915 C681.25,247.441 684.084,246.93 684.614,244.182 C685.076,241.779 680.536,240.728 667.381,240.189 L655.125,239.686 L655.125,233.982 C655.125,224.036 652.525,220.806 634.125,207.895 C626.065,202.239 612.366,193.882 606.536,191.064 C604.205,189.936 602.794,188.719 602.511,187.589 C602.271,186.632 603.113,180.715 604.381,174.439 C613.784,127.924 617.706,84.842 617.112,34.573 C616.823,10.051 616.712,8.324 615.223,5.03 C613.407,1.013 612.223,-0.059 606.863,0.002 z" fill="#000000" id="path10517"/>
    <path d="M331.875,376.327 C352.31,373.839 369.674,366.426 375.393,357.75 L377.187,355.028 L376.656,319.86 L376.125,284.692 L373.125,283.792 C365.166,281.405 351.427,272.889 341.625,264.268 C320.461,245.653 304.474,223.672 297.563,203.686 C295.404,197.442 295.172,195.913 295.15,187.778 C295.127,179.428 295.276,178.471 297.21,174.532 C300.103,168.641 303.616,165.779 312.997,161.671 C329.586,154.406 346.004,149.591 362.25,147.227 C373.851,145.538 394.669,146.088 405,148.356 C421.606,152.001 439.638,159.861 446.689,166.53 C462.28,181.274 460.803,205.388 442.629,232.778 C428.842,253.558 403.236,277.883 389.327,283.413 L386.779,284.426 L387.295,319.727 L387.811,355.028 L390.968,357.799 C398.136,364.091 412.118,370.494 424.5,373.157 C429.405,374.212 433.902,374.512 444,374.458 C455.681,374.395 457.95,374.169 464.625,372.398 C473.266,370.106 484.229,365.048 490.946,360.255 C497.18,355.807 504.55,347.595 508.492,340.707 C512.174,334.27 515.598,325.427 514.718,324.621 C514.14,324.091 501.787,322.248 492,321.232 C486.185,320.628 481.287,318.41 481.662,316.551 C481.885,315.446 482.904,315.294 489.397,315.4 C493.51,315.467 501.228,316.233 506.547,317.103 C511.867,317.972 516.36,318.543 516.531,318.372 C517.09,317.813 518.219,308.62 518.235,304.502 L518.249,300.475 L511.687,301.003 C508.077,301.293 501.074,302.001 496.124,302.576 C484.32,303.949 479.975,303.928 477.916,302.485 C473.606,299.466 477.296,297.908 492.818,296.193 C499.999,295.399 508.658,294.524 512.062,294.248 C516.007,293.929 518.249,293.428 518.249,292.868 C518.249,287.819 514.13,264.821 513.015,263.65 C512.39,262.993 504.296,265.027 489.741,269.5 C485.002,270.957 479.727,272.149 478.02,272.151 C474.425,272.154 471.238,270.066 471.961,268.182 C472.449,266.91 481.49,263.877 499.499,258.943 C505.068,257.417 509.914,255.915 510.268,255.605 C510.9,255.051 509.59,249.851 508.522,248.68 C508.223,248.35 506.544,249.278 504.792,250.742 C503.04,252.206 501.157,253.403 500.607,253.403 C499.165,253.403 497.249,251.276 497.249,249.674 C497.249,248.039 517.875,230.153 519.76,230.153 C520.451,230.153 521.602,230.8 522.318,231.591 C523.94,233.384 523.268,234.832 519.038,238.653 C517.367,240.163 515.999,241.769 515.999,242.222 C515.999,242.675 516.717,245.408 517.594,248.295 C519.099,253.251 519.299,253.526 521.156,253.204 C522.239,253.016 529.03,251.656 536.249,250.181 C563.968,244.517 593.913,240.891 618.749,240.19 C626.793,239.963 633.786,239.652 634.289,239.497 C634.799,239.341 633.484,237.576 631.319,235.51 L627.433,231.803 L636.75,231.247 L646.067,230.691 L643.471,228.491 C634.779,221.128 614.417,206.527 600.587,201.67 L588.586,197.456 C525.729,120.226 442.196,63.791 345.226,64.623 C320.586,65.245 303.473,69.633 280.554,75.515 C243.373,85.058 220.662,95.885 185.196,124.254 C158.9,145.289 122.42,177 90.133,213.653 C82.459,221.13 76.297,226.43 67.875,234.021 C56.179,244.824 36.83,265.733 37.713,266.615 C37.863,266.766 43.217,265.735 49.61,264.325 C72.653,259.239 98.655,255.513 126.75,253.269 C151.274,251.31 201.214,252.305 230.625,255.338 L235.125,255.802 L240.491,245.206 L245.857,234.61 L242.953,233.129 C239.394,231.313 238.122,229.261 239.25,227.153 C240.732,224.384 243.685,225.457 257.625,233.831 C271.45,242.135 272.978,243.593 270.716,246.319 C269.21,248.134 267.109,247.57 260.495,243.574 C257.009,241.469 254.051,239.866 253.922,240.012 C253.121,240.921 245.128,256.53 245.351,256.75 C245.502,256.899 249.506,257.557 254.25,258.212 C269.442,260.31 280.263,262.224 281.904,263.102 C284.233,264.348 283.904,266.553 281.223,267.664 C278.629,268.738 276.735,268.582 258.375,265.781 C251.363,264.712 244.657,263.936 243.474,264.057 C241.556,264.254 241.084,264.879 239.132,269.811 C237.927,272.854 237.101,275.504 237.296,275.699 C237.491,275.894 243.732,275.641 251.166,275.138 C265.277,274.183 269.211,274.423 270.8,276.339 C271.587,277.286 271.483,277.753 270.202,279.034 C268.866,280.37 267.221,280.678 258.264,281.267 C244.901,282.146 234.781,283.122 234.327,283.576 C234.13,283.773 233.101,287.274 232.039,291.356 C230.735,296.369 229.975,301.689 229.695,307.748 L229.281,316.719 L231.453,315.295 C237.983,311.016 247.753,305.353 252.471,303.112 C256.568,301.166 258.623,300.615 261.111,300.794 C263.309,300.951 264.375,301.373 264.375,302.086 C264.375,302.667 260.156,305.571 255,308.538 C249.844,311.505 242.166,316.183 237.938,318.932 C229.209,324.608 229.211,324.603 231.814,332.364 C239.58,355.521 261.679,370.858 294.696,376.005 C302.676,377.249 322.864,377.424 331.875,376.327 z" fill="#BEBFC1" id="path10511"/>
    <path d="M454.962,179.705 C500.584,179.033 546.029,187.632 592.47,198.796 C514.718,114.565 457.737,65.956 360.857,62.26 C249.691,58.019 193.49,102.511 78.82,224.268 C159.473,170.422 211.33,165.703 296.568,175.606 C354.002,127.765 440.524,146.349 454.962,179.705 z" fill="#97989A" id="path10474"/>
    <path d="M499.875,850.878 C524.993,845.978 545.339,835.301 562.93,817.791 C579.152,801.642 588.864,783.99 593.753,761.764 C595.691,752.954 595.696,728.233 593.762,719.382 C590.225,703.202 583.911,689.326 573.862,675.653 C568.618,668.518 557.603,657.495 551.14,652.914 C546.622,649.712 545.956,649.457 544.034,650.188 C542.867,650.631 538.837,651.009 535.079,651.028 C523.079,651.086 512.076,647.055 502.835,639.216 L497.932,635.057 L494.483,637.342 C487.719,641.821 483.553,642.95 473.625,642.991 C465.063,643.026 464.406,642.918 460.129,640.759 L455.633,638.49 L451.504,642.674 C444.036,650.241 428.772,659.476 417.455,663.275 C408.478,666.288 403.918,665.62 398.518,660.5 C395.67,657.799 394.985,658.05 389.609,663.77 C371.833,682.683 361.928,702.415 358.537,725.672 C357.404,733.438 357.569,748.707 358.88,757.435 C360.169,766.019 364.795,780.538 368.751,788.421 C385.286,821.366 418.43,845.275 455.625,851.091 C458.513,851.542 461.719,852.051 462.75,852.222 C467.231,852.965 494.18,851.989 499.875,850.878 z" fill="#F6AFCF" id="path9783"/>
    <path d="M509.766,833.309 C508.082,831.448 508.101,831.246 511.093,819.209 C520.58,781.05 522.243,749.08 515.945,725.947 C514.165,719.407 509.665,710.165 505.545,704.589 C502.336,700.244 492.194,690.653 490.809,690.653 C489.683,690.653 478.986,701.588 473.935,707.903 C471.79,710.584 468.023,715.815 465.564,719.528 C460.84,726.657 452.643,742.296 453.29,742.943 C453.872,743.525 473.854,732.857 485.25,725.879 C500.839,716.335 499.011,717.16 501.281,718.648 C502.364,719.357 503.25,720.434 503.25,721.041 C503.25,724.046 456.072,750.37 452.404,749.41 C451.047,749.056 450.67,749.635 449.33,754.142 C446.069,765.102 445.385,769.768 444.978,783.817 C444.607,796.598 445.045,803.529 446.781,812.34 C447.252,814.731 446.363,814.967 444.024,813.073 C441.634,811.138 440.294,803.491 439.752,788.698 C439.447,780.356 439.605,773.788 440.223,769.198 C441.296,761.218 444.849,746.799 446.878,742.187 C447.643,740.449 449.246,736.665 450.442,733.778 C452.862,727.933 460.477,714.982 465.215,708.653 C478.274,691.209 494.949,676.008 513.442,664.685 C523.917,658.272 534.589,653.001 536.117,653.486 C537.737,654 539.564,656.901 538.749,657.666 C538.406,657.988 534.412,660.169 529.875,662.512 C522.121,666.515 503.25,678.514 503.25,679.44 C503.25,679.673 505.359,681.434 507.938,683.353 C515.663,689.103 523.971,697.791 529.337,705.73 C535.934,715.491 541.687,730.493 544.263,744.653 C546.233,755.487 546.027,779.841 543.843,794.153 C542.293,804.316 537.933,824.61 536.463,828.508 L535.81,830.238 L533.712,828.587 C531.189,826.603 531.221,826.06 534.708,811.439 C542.368,779.317 542.623,747.546 535.399,725.528 C532.844,717.743 527.246,707.294 522.01,700.54 C517.169,694.294 514.798,691.995 505.352,684.39 L501.079,680.95 L496.915,684.343 C492.993,687.537 491.833,689.153 493.462,689.153 C494.823,689.153 507.495,702.307 510.686,707.031 C526.65,730.672 529.184,764.46 518.569,812.153 C513.431,835.24 512.827,836.691 509.766,833.309 z" fill="#000000" id="path9781"/>
    <path d="M558.035,810.316 L556.282,808.449 L558.453,795.864 C560.451,784.288 560.624,781.803 560.614,764.903 C560.605,750.284 560.32,744.995 559.219,739.028 C556.573,724.697 550.794,710.124 543.157,698.528 C539.459,692.912 525.603,678.276 521.933,676.107 C519.588,674.723 517.006,671.397 517.721,670.682 C518.446,669.956 524.333,674.448 531.488,681.188 C537.933,687.26 539.512,688.484 539.062,687.059 C538.829,686.319 556.82,668.153 557.786,668.153 C558.172,668.153 559.251,668.965 560.183,669.957 C562.465,672.385 562.071,672.994 551.922,682.719 C545.744,688.639 543.144,690.669 542.093,690.395 C540.281,689.921 540.268,689.896 545.579,697.257 L550.033,703.431 L553.002,700.604 C557.835,696.005 565.151,688.259 567.855,684.879 C570.676,681.355 572.134,680.953 574.124,683.152 C575.109,684.24 575.295,685.05 574.803,686.107 C573.051,689.874 555.554,707.903 553.65,707.903 C553.067,707.903 552.774,708.325 552.999,708.84 C553.225,709.356 554.527,712.384 555.892,715.569 C557.258,718.755 558.582,721.37 558.834,721.382 C559.717,721.422 571.184,708.982 574.888,703.965 C576.943,701.181 578.988,698.903 579.432,698.903 C580.41,698.903 583.508,702.096 583.48,703.076 C583.431,704.786 571.482,718.561 564.439,725.026 L560.901,728.275 L562.209,733.823 C562.928,736.874 563.805,739.8 564.158,740.324 C564.983,741.551 576.463,729.699 582.123,721.777 C584.324,718.697 586.488,716.172 586.932,716.165 C587.817,716.151 591,719.292 591,720.179 C591,722.999 568.704,747.653 566.153,747.653 C565.001,747.653 564.872,748.034 565.331,750.09 C566.464,755.167 565.925,783.671 564.52,793.028 C562.443,806.856 561.448,811.631 560.582,811.918 C560.145,812.063 559,811.342 558.035,810.316 z" fill="#000000" id="path9779"/>
    <path d="M426.661,810.648 C422.068,807.964 419.101,777.145 421.532,757.383 C423.412,742.103 429.45,723.735 436.835,710.836 C450.232,687.433 469.012,669.965 495.299,656.456 L501.972,653.026 L503.924,654.483 C506.638,656.509 506.366,657.786 502.875,659.418 C497.147,662.095 484.1,669.89 478.877,673.754 C450.704,694.6 433.517,721.921 427.479,755.453 C426.363,761.65 426.001,766.992 426.004,777.222 C426.007,789.362 426.432,794.273 428.678,808.215 C429.201,811.459 428.825,811.912 426.661,810.648 z" fill="#000000" id="path9777"/>
    <path d="M399.477,800.698 C396.303,797.524 393.274,776.396 393.961,762.221 L394.364,753.913 L388.994,752.332 C382.693,750.476 375.473,746.06 369.884,740.645 C366.109,736.986 360.75,730.369 360.75,729.365 C360.75,727.803 363.28,729.781 369.65,736.323 C373.624,740.404 378.274,744.443 379.984,745.298 C382.881,746.747 394.51,750.228 394.839,749.745 C394.92,749.625 395.583,746.659 396.312,743.153 C399.035,730.053 406.057,713.241 413.108,702.937 C414.836,700.412 416.246,698.218 416.241,698.062 C416.236,697.906 412.777,694.2 408.554,689.827 C400.771,681.768 394.626,673.127 396.051,672.246 C397.21,671.53 398.809,673.182 402.953,679.381 C405.029,682.487 409.27,687.511 412.378,690.545 L418.027,696.063 L419.571,693.92 C422.63,689.674 432.851,678.668 438.182,673.878 C449.304,663.885 463.725,653.464 475.207,647.123 C479.687,644.649 479.834,644.622 481.77,645.89 C484.648,647.776 484.253,649.532 480.557,651.278 C475.013,653.896 457.43,666.025 448.756,673.215 C427.606,690.745 412.049,712.342 404.611,734.497 C398.011,754.16 397.29,775.711 402.422,799.965 C403.044,802.905 401.955,803.176 399.477,800.698 z" fill="#000000" id="path9775"/>
    <path d="M447.779,796.261 C446.938,795.359 446.25,794.37 446.25,794.065 C446.25,793.759 448.191,793.116 450.562,792.636 C463.34,790.048 488.074,782.941 499.033,778.709 L505.741,776.118 L507.496,777.766 C508.46,778.673 509.25,779.832 509.25,780.343 C509.25,782.187 484.657,790.317 464.134,795.257 C451.257,798.357 449.814,798.445 447.779,796.261 z" fill="#000000" id="path9773"/>
    <path d="M447.741,781.768 C446.679,780.638 446.251,779.63 446.672,779.251 C447.059,778.904 451.762,777.215 457.125,775.498 C473.784,770.164 493.785,762.452 503.533,757.603 C509.156,754.806 511.599,754.785 513.064,757.522 C514.096,759.451 514.203,759.376 503.325,764.366 C494.998,768.186 490.213,770.152 480,773.95 C471.976,776.933 451.433,783.653 450.335,783.653 C449.882,783.653 448.715,782.805 447.741,781.768 z" fill="#000000" id="path9771"/>
    <path d="M450.414,764.946 C449.689,764.145 449.223,763.109 449.378,762.644 C449.533,762.178 451.846,760.951 454.518,759.916 C472.262,753.041 494.761,742.211 508.212,734.069 C510.519,732.673 510.575,732.675 512.525,734.208 C516.021,736.958 515.766,737.237 503.703,743.883 C498.737,746.62 483.792,754.087 478.217,756.617 C470.409,760.161 454.383,766.403 453.091,766.403 C452.344,766.403 451.139,765.748 450.414,764.946 z" fill="#000000" id="path9769"/>
    <path d="M387.693,729.835 C383.046,726.691 378.366,722.274 374.215,717.115 C371.759,714.062 369.75,711.246 369.75,710.858 C369.75,708.839 372.39,710.748 376.424,715.685 C378.91,718.727 382.728,722.67 384.909,724.447 C389.148,727.9 390.75,729.573 390.75,730.546 C390.75,731.484 389.804,731.264 387.693,729.835 z" fill="#000000" id="path9767"/>
    <path d="M399.485,709.288 C392.408,704.046 380.974,687.935 383.306,686.493 C384.534,685.734 386.721,688.159 389.331,693.174 C392.537,699.335 395.46,702.84 401.062,707.244 C403.641,709.27 405.75,711.26 405.75,711.666 C405.75,713.15 403.591,712.33 399.485,709.288 z" fill="#000000" id="path9765"/>
    <path d="M699,847.882 C702.668,846.095 704.471,843.296 704.829,838.83 C705.186,834.369 703.242,830.806 699.141,828.411 C696.769,827.026 695.982,827.001 680.769,827.841 C672.027,828.323 659.846,828.925 653.699,829.179 L642.523,829.639 L645.611,825.549 C653.877,814.601 654.375,804.243 646.947,797.747 C640.19,791.836 622.739,787.322 603.463,786.499 L598.3,786.278 L597.323,789.065 C596.349,791.844 591.138,802.502 589.365,805.34 C588.852,806.162 588.588,806.987 588.778,807.172 C588.969,807.357 597.968,807.626 608.775,807.769 C620.744,807.927 628.724,808.326 629.189,808.791 C629.706,809.309 628.657,811.462 625.932,815.478 C623.721,818.736 621.539,822.651 621.081,824.177 C618.866,831.57 621.079,838.398 626.855,841.991 C636.345,847.894 648.479,849.685 676.875,849.374 C693.424,849.192 696.772,848.967 699,847.882 z" fill="#F6AFCF" id="path9763"/>
    <path d="M299.625,833.137 C317.174,831.177 336.285,824.115 351,814.155 C355.568,811.062 364.387,802.53 365.771,799.863 C366.853,797.778 366.741,797.378 362.732,788.988 C357.957,778.995 354.722,769.56 352.332,758.651 C350.865,751.956 350.659,748.819 350.643,732.886 L350.626,714.743 L349.078,716.198 C347.043,718.11 346.523,718.049 342.973,715.477 C340.951,714.013 339.137,711.643 337.423,708.23 C335.424,704.249 333.594,702.05 328.912,697.996 L322.947,692.832 L321.554,697.93 C320.788,700.734 319.878,703.315 319.532,703.665 C318.465,704.744 315.832,703.426 312.408,700.098 C310.607,698.348 305.645,695.101 301.38,692.882 C295.384,689.763 292.409,687.627 288.256,683.459 C284.77,679.96 282.629,678.325 282.154,678.8 C281.149,679.805 277.417,677.786 275.023,674.941 C273.974,673.694 271.928,670.223 270.474,667.226 C269.021,664.23 266.424,660.09 264.702,658.028 C258.058,650.071 253.173,641.432 252.328,636.144 C251.927,633.638 251.412,632.992 248.815,631.74 C246.998,630.865 244.811,628.88 243.388,626.816 C241.101,623.497 240.97,622.895 240.123,611.818 C239.638,605.471 239.244,598.682 239.246,596.731 C239.251,593.505 238.957,592.912 235.998,590.185 C234.208,588.535 232.148,585.865 231.42,584.251 L230.097,581.316 L233.799,575.047 C235.834,571.599 238.713,566.078 240.196,562.778 C244.677,552.806 249.751,540.709 249.751,539.996 C249.751,539.627 248.886,538.759 247.829,538.066 C245.653,536.64 241.501,530.473 241.501,528.666 C241.501,526.935 248.141,517.19 254.238,509.972 C257.133,506.544 259.501,503.481 259.501,503.163 C259.501,502.846 258.973,502.148 258.327,501.612 C257.059,500.559 255.502,497.784 254.675,495.103 C254.236,493.68 255.852,491.67 265.394,481.766 C276.601,470.134 287.713,457.56 287.165,457.128 C287.006,457.002 282.658,456.487 277.501,455.982 C270.274,455.274 234.146,450.681 228.075,449.698 C227.315,449.575 226.656,451.403 225.703,456.278 C221.762,476.432 214.547,490.873 201.768,504.186 C194.149,512.123 187.556,517.332 171.001,528.492 C150.904,542.041 143.16,548.828 135.422,559.677 C121.919,578.605 116.721,601.827 119.196,632.153 C119.684,638.134 121.246,652.195 122.668,663.4 C124.089,674.605 125.251,685.139 125.251,686.81 C125.251,688.48 124.523,691.792 123.634,694.17 C122.232,697.917 120.308,700.242 109.186,711.635 C95.521,725.632 92.364,730.159 89.604,739.714 C86.977,748.811 89.36,760.307 95.056,766.003 L97.09,768.037 L97.979,764.551 C100.179,755.927 107.388,745.517 116.433,737.904 C122.37,732.906 124.366,732.415 126.697,735.379 C129.568,739.029 128.849,740.957 122.735,746.014 C116.587,751.099 109.667,759.64 107.232,765.147 C105.041,770.1 104.497,776.01 105.972,778.827 C109.657,785.868 118.012,789.271 127.689,787.672 C130.475,787.211 130.501,787.173 130.501,783.675 C130.501,775.92 134.275,765.474 140.272,756.63 C143.406,752.006 152.486,743.153 154.092,743.153 C156.872,743.153 159.751,746.375 159.751,749.486 C159.751,750.122 156.786,753.598 153.162,757.21 C146.198,764.153 142.279,770.422 139.949,778.352 C137.939,785.19 138.307,788.149 141.7,792.41 C144.997,796.551 151.708,801.502 156.623,803.421 C164.368,806.444 174.639,805.454 184.258,800.758 L189.376,798.26 L189.84,790.019 C190.624,776.077 194.177,768.971 205.775,758.153 C218.891,745.919 227.644,736.696 230.117,732.503 C240.467,714.952 239.913,691.726 228.321,657.305 C224.588,646.22 224.373,645.204 225.413,643.617 C226.867,641.397 227.674,641.456 230.162,643.965 C233.365,647.194 239.944,667.279 243.425,684.456 C247.054,702.362 246.628,716.948 242.11,729.432 C238.603,739.125 233.904,745.486 222.147,756.456 C206.858,770.722 204.193,773.688 201.17,779.802 C198.743,784.708 198.404,786.112 198.13,792.363 C197.838,799.051 197.921,799.531 199.807,802.004 C201.879,804.72 206.166,806.456 209.7,806.01 C211.508,805.781 211.536,805.662 211.71,797.503 C211.871,789.882 212.076,788.84 214.301,784.321 C217.211,778.409 222.983,772.69 231.145,767.629 C236.002,764.618 237.155,764.183 238.449,764.875 C240.501,765.973 242.443,769.867 241.858,771.709 C241.6,772.524 238.443,775.171 234.843,777.591 C223.27,785.373 219.771,791.002 219.759,801.857 L219.751,808.436 L222.816,811.761 C229.192,818.679 236.498,821.32 248.349,820.993 L256.126,820.778 L256.736,815.153 C258.062,802.918 263.659,791.393 272.67,782.34 C277.058,777.931 278.52,776.903 280.399,776.903 C282.048,776.903 283.074,777.448 283.953,778.789 C286.191,782.205 285.548,783.762 279.283,790.095 C270.323,799.153 265.738,808.024 264.974,817.778 C264.63,822.166 264.692,822.349 267.452,825.146 C271.76,829.514 277.062,831.852 285.412,833.069 C291.655,833.979 292.066,833.981 299.626,833.137 z" fill="#97989A" id="path9761"/>
    <path d="M359.608,693.626 C360.547,695.144 361.396,694.341 364.139,689.34 C366.636,684.789 370.525,679.433 387.14,657.667 L392.156,651.096 L389.639,643.312 C384.742,628.165 384.145,611.943 388.058,600.366 C391.973,588.784 399.672,579.794 408.063,577.007 C416.577,574.179 425.122,577.177 434.147,586.158 C437.184,589.18 439.716,591.652 439.772,591.652 C439.829,591.651 439.967,590.217 440.08,588.464 C440.365,584.022 442.282,577.608 444.434,573.894 C446.535,570.269 446.786,565.921 445.198,560.647 C444.62,558.725 444.416,557.153 444.746,557.153 C445.075,557.153 446.329,558.25 447.533,559.59 C452.139,564.72 452.473,564.88 455.532,563.421 C458.605,561.956 458.732,561.299 457.041,555.602 C455.334,549.851 452.172,543.87 447.754,538.033 L443.952,533.01 L453.351,539.467 C459.599,543.76 462.75,545.533 462.75,544.756 C462.75,540.974 453.146,519.525 447.484,510.663 C446.038,508.4 444.971,506.432 445.113,506.29 C445.255,506.148 448.342,507.561 451.972,509.431 C455.603,511.3 458.676,512.727 458.801,512.602 C458.926,512.477 457.884,510.047 456.485,507.201 C455.087,504.356 452.849,498.822 451.514,494.903 C447.293,482.517 442.458,473.46 436.367,466.526 L430.875,460.274 L379.125,460.055 C350.662,459.934 319.823,459.443 310.592,458.964 C294.272,458.116 293.78,458.132 292.782,459.558 C287.746,466.747 277.39,479.08 269.242,487.59 C263.811,493.262 259.482,497.901 259.622,497.899 C259.761,497.897 263.863,497.222 268.737,496.399 C273.611,495.576 277.932,494.903 278.339,494.903 C278.745,494.903 277.12,496.545 274.726,498.552 C264.933,506.765 245.472,529.875 247.034,531.437 C247.27,531.673 250.593,530.667 254.419,529.203 C258.245,527.739 262.716,526.289 264.355,525.982 C267.736,525.348 267.928,524.769 262.319,532.107 C258.711,536.827 253.182,547.545 248.248,559.385 C244.295,568.87 240.918,575.783 237.248,581.903 C235.226,585.275 235.225,585.277 237.05,583.737 C240.899,580.489 250.204,572.54 251.879,571.068 C253.311,569.81 253.076,570.562 250.593,575.169 C244.327,586.802 243.291,593.112 244.605,611.666 L245.517,624.554 L248.571,622.329 C250.251,621.105 253.199,618.922 255.122,617.479 L258.62,614.855 L257.449,619.192 C256.772,621.699 256.28,626.532 256.283,630.653 C256.289,640.065 257.914,644.196 265.669,654.511 C268.983,658.92 272.63,664.482 273.772,666.869 L275.848,671.211 L279.673,664.619 L283.499,658.028 L283.499,661.113 C283.5,665.423 284.742,671.507 286.288,674.771 C288.355,679.136 293.093,683.238 300.576,687.142 C304.386,689.13 308.689,691.875 310.137,693.241 C312.974,695.916 313.029,695.905 313.819,692.528 C314.108,691.29 314.854,688.506 315.476,686.34 L316.606,682.403 L322.366,687.465 C332.481,696.357 338.277,702.524 339.84,706.058 L341.352,709.476 L350.24,701.162 C355.2,696.523 359.34,693.192 359.608,693.626 z" fill="#FEFEFE" id="path9759"/>
    <path d="M412.368,654.23 C422.605,650.812 438.875,641.099 445.554,634.42 C448.839,631.135 449.249,630.366 449.245,627.501 C449.231,619.129 443.588,603.692 437.649,595.778 C425.312,579.339 406.997,582.34 397.117,602.419 C391.004,614.843 390.626,631.936 396.095,648.642 C396.974,651.329 398.209,654.119 398.838,654.84 C400.494,656.739 405.535,656.512 412.368,654.23 z" fill="#BEBFC1" id="path9757"/>
    <path d="M561.695,638.528 C568.074,607.483 563.776,577.001 548.686,546.278 C542.777,534.247 537.188,525.451 526.299,511.047 C522.55,506.086 517.545,499.466 515.177,496.334 C505.129,483.047 497.819,470.003 493.519,457.688 L491.167,450.954 L480.146,453.419 C467.695,456.203 451.746,458.757 445.312,458.998 C442.941,459.087 441,459.311 441,459.496 C441,459.68 442.2,461.806 443.666,464.22 C447.826,471.069 452.447,481.514 456.728,493.742 C458.887,499.91 461.969,507.804 463.576,511.285 C468.029,520.922 467.328,522.738 460.496,519.276 C458.347,518.187 456.727,517.573 456.896,517.912 C466.596,537.398 471.803,551.156 470.207,553.08 C468.909,554.644 467.847,554.423 464.293,551.848 C462.542,550.58 460.985,549.668 460.831,549.822 C460.678,549.975 461.339,552.109 462.302,554.564 C463.264,557.019 464.229,559.552 464.445,560.193 C464.696,560.934 466.522,561.671 469.455,562.217 C471.993,562.689 475.94,563.931 478.226,564.978 C483.489,567.387 491.621,575.433 495.022,581.594 L497.542,586.16 L500.142,583.561 C504.564,579.139 508.553,577.767 516.75,577.85 C524.643,577.929 531.08,579.873 537.861,584.224 C545.78,589.306 551.81,598.885 553.538,609.129 C554.406,614.272 554.14,635.698 553.151,640.403 C552.83,641.931 553.333,642.735 555.872,644.747 C557.586,646.104 559.25,646.948 559.571,646.622 C559.891,646.295 560.847,642.653 561.695,638.528 z" fill="#97989A" id="path9755"/>
    <path d="M540.5,640.29 C544.643,638.354 545.902,636.22 546.748,629.709 C550.256,602.701 542.994,588.859 524.186,586.705 C512.525,585.37 503.795,591.227 500.227,602.779 C498.252,609.173 497.451,621.888 498.734,626.472 C500.305,632.083 507.951,638.001 516.763,640.427 C525.569,642.851 535.141,642.796 540.5,640.29 z" fill="#BEBFC1" id="path9753"/>
    <path d="M481.678,632.204 C488.657,629.525 492.791,626.308 495.239,621.653 C497.386,617.569 497.404,617.431 497.01,607.778 C496.237,588.813 491.021,578.087 480.116,573.043 C476.685,571.455 474.729,571.075 469.875,571.054 C464.527,571.031 463.427,571.28 459.75,573.352 C451.03,578.265 446.574,587.867 446.733,601.403 C446.833,609.886 447.445,613.369 450.524,622.956 C453.674,632.765 456.798,634.606 469.5,634.144 C475.28,633.933 478.52,633.417 481.678,632.204 z" fill="#BEBFC1" id="path9751"/>
    <path d="M409.125,449.898 C453.606,448.143 481.616,445.094 495.453,440.5 C527.709,429.79 562.223,411.609 589.737,390.832 C605.425,378.985 626.985,359.531 625.715,358.368 C625.391,358.07 620.062,355.794 613.875,353.31 C591.86,344.472 562.364,335.107 539.25,329.615 C521.741,325.456 523.831,325.356 522.406,330.42 C515.046,356.579 496.988,375.956 472.223,384.269 C461.639,387.822 456.358,388.635 443.625,388.673 C428.151,388.719 416.409,386.361 404.461,380.81 C398.29,377.943 388.296,371.436 384.853,368.044 L382.331,365.56 L379.3,369.151 C371.403,378.506 355.682,386.068 336.7,389.641 C325.573,391.735 300.861,391.56 289.683,389.307 C260.829,383.492 240.757,370.564 229.949,350.831 C227.074,345.581 223.974,337.374 223.107,332.715 C222.819,331.168 222.398,329.903 222.171,329.903 C221.606,329.903 210.523,337.919 201,345.215 C184.075,358.184 157.842,379.895 145.936,390.789 L141.498,394.85 L147.061,399.347 C166.507,415.063 191.534,428.461 219.706,438.235 C237.402,444.375 266.417,448.012 312.375,449.85 C333.82,450.708 387.922,450.735 409.125,449.898 z" fill="#BEBFC1" id="path9749"/>
    <path d="M368.788,403.334 C364.047,402.218 361.5,400.563 361.5,398.6 C361.5,395.278 363.167,394.792 369.472,396.276 C376.206,397.862 384.285,397.515 393,395.265 C398.78,393.773 400.648,394.002 401.534,396.311 C402.245,398.164 400.763,400.201 398.068,401.076 C389.406,403.888 375.648,404.949 368.788,403.334 z" fill="#000000" id="path9747"/>
    <path d="M112.148,408.054 C114.269,402.4 118.416,394.411 121.956,389.153 C127.854,380.395 126.928,380.764 131.557,385.335 L135.598,389.326 L146.361,380.031 C167.464,361.806 199.568,336.672 216.121,325.416 L221.065,322.055 L221.478,310.041 C221.759,301.85 222.384,295.899 223.441,291.336 C224.294,287.655 224.886,284.539 224.758,284.411 C224.63,284.284 218.977,284.985 212.195,285.97 C170.917,291.968 134.932,301.938 100.502,316.915 C91.04,321.031 72.705,330.304 65.438,334.649 L61.5,337.003 L61.5,343.855 C61.5,360.012 66.948,377.58 75.765,389.852 C78.26,393.326 78.766,393.713 79.196,392.477 C82.863,381.931 88.923,367.2 93.059,358.778 L98.215,348.278 L97.789,356.903 C96.919,374.493 100.513,396.56 106.535,410.608 C107.966,413.947 108.097,414.048 109.429,412.842 C110.196,412.148 111.42,409.993 112.148,408.054 z" fill="#BEBFC1" id="path9745"/>
    <path d="M425.518,334.018 C425.02,332.723 426.471,330.653 427.875,330.653 C429.311,330.653 430.583,332.564 430.058,333.933 C429.468,335.471 426.099,335.534 425.518,334.018 z" fill="#000000" id="path9741"/>
    <path d="M319.508,329.537 C318.293,328.074 319.075,326.153 320.885,326.153 C323.049,326.153 324.424,328.114 323.25,329.528 C322.064,330.957 320.689,330.961 319.508,329.536 z" fill="#000000" id="path9739"/>
    <path d="M455.679,327.224 C455.03,326.576 454.5,325.616 454.5,325.091 C454.5,323.987 456.88,321.653 458.005,321.653 C458.984,321.653 461.25,324.144 461.25,325.221 C461.25,326.374 459.098,328.403 457.875,328.403 C457.315,328.403 456.327,327.873 455.679,327.224 z" fill="#000000" id="path9737"/>
    <path d="M290.063,323.335 C288.381,322.961 287.548,319.727 288.758,318.268 C290.085,316.669 292.233,316.893 293.547,318.769 C295.347,321.339 293.279,324.049 290.063,323.335 z" fill="#000000" id="path9735"/>
    <path d="M422.677,301.25 C421.691,299.842 421.67,299.37 422.537,298.063 C424.482,295.128 428.25,296.056 428.25,299.47 C428.25,302.936 424.662,304.083 422.678,301.25 z" fill="#000000" id="path9733"/>
    <path d="M322.679,297.903 C319.598,296.662 320.257,291.653 323.501,291.653 C326.904,291.653 328.424,296.088 325.549,297.626 C324.751,298.053 323.992,298.376 323.862,298.344 C323.732,298.311 323.199,298.113 322.679,297.903 z" fill="#000000" id="path9731"/>
    <path d="M453.03,293.564 C451.838,292.127 452.693,289.601 454.574,289.004 C457.402,288.107 459.466,291.637 457.35,293.753 C456.129,294.974 454.127,294.886 453.03,293.564 z" fill="#000000" id="path9729"/>
    <path d="M292.312,289.343 C290.286,288.162 290.621,285.027 292.832,284.472 C293.84,284.219 295.021,284.232 295.457,284.502 C296.529,285.164 296.462,288.141 295.35,289.253 C294.275,290.328 294.016,290.335 292.312,289.343 z" fill="#000000" id="path9727"/>
    <path d="M439.679,271.282 C437.313,268.916 440.164,265.203 442.843,267.161 C444.601,268.447 444.111,271.708 442.116,271.994 C441.286,272.113 440.19,271.792 439.679,271.282 z" fill="#000000" id="path9725"/>
    <path d="M305.681,266.215 C303.241,263.518 307.027,259.98 309.6,262.553 C310.822,263.775 310.731,265.065 309.321,266.474 C307.798,267.998 307.26,267.96 305.681,266.215 z" fill="#000000" id="path9723"/>
    <path d="M451.522,159.443 C444.348,155.813 444.629,143.507 451.956,140.446 C461.842,136.315 468.166,153.209 458.858,158.884 C456.001,160.625 454.139,160.767 451.522,159.443 z" fill="#000000" id="path9721"/>
    <path d="M454.35,147.503 C456.48,145.372 454.862,141.653 451.805,141.653 C450.147,141.653 449.25,142.939 449.25,145.314 C449.25,146.932 450.679,148.403 452.25,148.403 C452.91,148.403 453.855,147.998 454.35,147.503 z" fill="#000000" id="path9719"/>
    <path d="M282.314,157.426 C279.921,156.458 276.866,152.408 276.315,149.473 C275.611,145.719 277.784,140.415 280.774,138.592 C283.616,136.859 285.149,136.797 288.295,138.29 C291.66,139.887 293.25,142.956 293.25,147.855 C293.25,152.421 291.703,155.113 287.971,157.043 C285.576,158.281 284.592,158.348 282.314,157.426 z" fill="#000000" id="path9717"/>
    <path d="M284.625,144.384 C285.97,142.331 285.474,140.46 283.275,139.282 C281.99,138.595 281.493,138.74 280.363,140.136 C278.691,142.201 278.643,143.439 280.178,144.974 C281.837,146.632 283.276,146.441 284.625,144.384 z" fill="#000000" id="path9715"/>
    <path d="M656.616,373.389 C656.356,372.968 654.396,371.751 652.259,370.683 C648.007,368.558 648.226,369.1 652.862,372.173 C655.964,374.23 657.429,374.704 656.616,373.389 z" fill="#000000" id="path9713"/>
    <path d="M655.067,362.34 C651.394,345.926 646.68,331.716 641.48,321.391 C640.473,319.39 639.756,317.666 639.887,317.56 C640.018,317.453 646.664,322.564 654.655,328.917 C662.647,335.27 669.359,340.293 669.572,340.081 C670.019,339.634 668.526,333.916 664.736,321.556 L662.061,312.834 L651.468,310.471 C616.352,302.635 572.11,298.348 539.499,299.62 L526.623,300.123 L526.067,307.325 C525.022,320.848 524.938,320.348 528.375,321.112 C568.057,329.93 614.966,345.677 645.965,360.586 C655.119,364.989 655.684,365.098 655.067,362.34 z" fill="#BEBFC1" id="path9711"/>
    <path d="M48.089,327.653 C50.342,324.972 54.832,319.476 58.068,315.441 C61.304,311.406 64.094,308.246 64.266,308.419 C64.439,308.592 64.057,311.724 63.418,315.38 C62.778,319.037 62.254,322.94 62.252,324.055 L62.25,326.083 L74.813,319.798 C114.852,299.766 158.845,286.617 209.687,279.486 L227.18,277.032 L229.697,269.905 L232.215,262.778 L230.295,262.266 C225.915,261.097 196.892,259.279 176.25,258.881 C138.762,258.158 103.371,261.048 68.01,267.72 C57.72,269.661 57.886,269.524 52.237,280.778 C45.334,294.529 42.75,305.912 42.75,322.564 C42.75,328.319 43.03,332.915 43.372,332.778 C43.713,332.64 45.836,330.334 48.089,327.653 z" fill="#BEBFC1" id="path9709"/>
    <path d="M657.573,301.965 C654.55,293.285 642.867,273.232 636.014,264.964 C633.12,261.471 633.047,261.264 634.622,261.02 C635.536,260.878 641.164,261.137 647.128,261.597 C653.091,262.056 658.131,262.272 658.326,262.077 C658.521,261.881 655.142,258.1 650.817,253.675 L642.953,245.628 L623.164,246.523 C588.423,248.095 557.36,252.275 525.75,259.63 C520.921,260.753 521.105,259.337 523.796,274.65 C524.871,280.767 525.75,287.433 525.75,289.462 L525.75,293.153 L549.187,293.161 C574.534,293.17 586.908,293.81 607.875,296.202 C621.827,297.794 643.496,301.273 651.375,303.186 C658.365,304.884 658.575,304.843 657.573,301.966 z" fill="#BEBFC1" id="path9707"/>
    <path d="M386.992,269.601 C393.631,266.398 400.91,260.561 411.822,249.686 C426.567,234.993 435.033,224.031 441.346,211.46 C446.076,202.043 447.75,196.4 447.75,189.874 C447.75,183.371 446.231,179.733 442.091,176.321 C435.777,171.115 418.26,164.159 404.509,161.395 C394.187,159.32 369.891,159.492 358.843,161.719 C342.509,165.012 321.964,171.878 311.638,177.495 C304.309,181.481 302.503,189.518 306.291,201.278 C313.616,224.01 342.745,256.639 365.637,267.752 C375.383,272.484 380.158,272.898 386.992,269.601 z" fill="#EC3237" id="path9705"/>
    <path d="M100.895,189.465 C112.125,176.916 146.121,142.979 157.125,133.334 C180.914,112.481 201.674,97.124 220.312,86.589 C224.541,84.2 228,82.133 228,81.997 C228,81.547 206.772,67.766 198.375,62.765 C152.539,35.468 114.444,22.167 75.195,19.758 C67.68,19.296 66.713,19.378 66.279,20.508 C65.551,22.404 67.356,60.336 69.01,77.903 C72.39,113.799 77.531,143.349 86.366,177.653 C88.863,187.347 91.079,196.037 91.29,196.965 C91.502,197.893 91.899,198.653 92.174,198.653 C92.449,198.653 96.373,194.518 100.895,189.465 z" fill="#BEBFC1" id="path9703"/>
    <path d="M111.758,144.894 C119.762,100.556 119.057,87.499 157.215,88.073 C147.914,77.733 127.892,56.482 95.848,45.647 C83.091,62.38 100.668,111.63 111.758,144.894 z" fill="#F6AFCF" id="path9798"/>
    <path d="M596.189,176.579 C605.812,131.009 610.948,74.088 609.386,30.331 L608.828,14.694 L601.765,15.19 C566.038,17.701 524.707,34.133 480.75,63.3 C474.356,67.543 466.992,72.585 464.385,74.505 L459.645,77.997 L468.885,83.269 C490.089,95.366 522.062,118.053 539.25,133.198 C553.768,145.989 580.018,173.745 590.516,187.404 C593.318,191.049 593.008,191.639 596.189,176.579 z" fill="#BEBFC1" id="path9699"/>
    <path d="M107.326,140.296 C106.927,139.549 104.586,132.377 102.123,124.358 C91.023,88.205 86.278,61.829 88.501,48.644 C89.295,43.941 89.846,42.657 91.993,40.51 C94.258,38.245 94.875,38.006 97.532,38.362 C99.177,38.583 101.952,39.502 103.699,40.404 C107.737,42.491 114.619,47.753 115.919,49.748 C117.153,51.642 118.552,57.653 117.759,57.653 C117.439,57.653 113.788,55.965 109.646,53.903 C105.503,51.84 101.468,50.153 100.678,50.153 C99.888,50.153 98.024,51.193 96.536,52.464 C91.592,56.687 91.21,64.288 94.995,83.153 C97.14,93.848 101.138,108.662 106.091,124.27 C109.308,134.407 110.428,141.653 108.776,141.653 C108.378,141.653 107.726,141.042 107.326,140.296 z" fill="#000000" id="path9701"/>
    <path d="M521.248,86.558 C537.281,72.724 549.055,59.689 580.342,42.995 L587.161,54.738 L585.645,78.603 L569.514,144.673 C565.625,93.649 568.032,83.15 521.248,86.558 z" fill="#F6AFCF" id="path9800"/>
    <path d="M572.042,138.195 C570.843,136.995 571.662,131.412 574.853,119.033 C581.599,92.864 585.615,68.67 584.751,59.409 C584.2,53.509 582.756,50.674 579.054,48.224 L576.149,46.302 L572.137,48.312 C569.93,49.418 566.165,51.502 563.768,52.944 C561.372,54.385 559.23,55.382 559.007,55.159 C558.784,54.936 558.842,53.325 559.138,51.578 C560.05,46.178 569.702,37.398 577.191,35.156 C581.475,33.874 584.56,35.523 586.753,40.269 C588.24,43.486 588.372,44.965 588.343,58.028 C588.318,70.083 587.998,74.068 586.274,83.903 C582.829,103.558 575.312,135.006 573.45,137.551 C572.974,138.203 572.34,138.493 572.042,138.195 z" fill="#000000" id="path9682"/>
  </g>
  <g id="layer5">
    <path d="M314.822,200.848 C312.297,199.377 311.815,197.347 313.084,193.528 C315.361,186.67 321.476,181.644 332.655,177.442 C357.019,168.285 398.115,167.617 425.114,175.939 C432.455,178.202 434.684,180.351 432.358,182.922 C430.69,184.765 428.552,184.794 424.375,183.032 C406.66,175.56 360.064,175.731 338.956,183.345 C328.273,187.198 323.335,191.323 322.21,197.331 C321.488,201.187 318.139,202.781 314.822,200.848 z M450.372,146.9 C448.086,144.374 450.709,140.364 453.43,142.227 C454.895,143.23 455.152,145.209 454.026,146.817 C452.647,148.785 452.09,148.798 450.372,146.9 z M280.284,144.937 C279.331,143.984 279.719,141.112 280.938,140.101 C282.648,138.681 284.625,140.16 284.625,142.86 C284.625,144.623 284.269,145.069 282.722,145.25 C281.675,145.372 280.578,145.231 280.284,144.937 z" fill="#FFFFFF" id="path9787"/>
  </g>
</svg>
